<svg xmlns="http://www.w3.org/2000/svg" width="113.787" height="41.958" viewBox="0 0 113.787 41.958"><g transform="translate(0 0)" opacity="0.86"><path d="M122.129,291.3l10.515-6.066,4.548-2.638v-2.025L119.72,270.31l-17.9,10.46v20.887l17.9,10.612,17.476-10.1v-2.028Zm-3.517-2.052-13.305-7.8,13.247-7.737Zm-1.152,2.052-13.3,7.675V283.486Zm16.81-9.7-13.308,7.672-.059-15.532Zm0,19.547-14.545,8.423-14.413-8.575,14.48-8.355Z" transform="translate(-101.82 -270.31)"/><path d="M330.6,300.349c.8-2.459,2.4-7.429,2.4-7.429h3.587v11.391H333.9l.082-7.376-2.535,7.379h-1.887l-2.5-7.268v7.268H324.4V292.943h3.584l2.412,7.417Z" transform="translate(-259.169 -286.294)"/><path d="M444.74,352.13h2.781l3.778,6.6.19-.053V352.13h2.734v11.391h-2.769l-3.789-6.6-.144.032v6.571H444.74Z" transform="translate(-344.242 -328.152)"/><path d="M319.572,357.038v6.512H316.8V352.179h2.79l3.789,6.644.138-.026V352.17h2.79v11.359h-2.79L319.757,357Z" transform="translate(-253.797 -328.18)"/><path d="M360.82,363.541V352.135a37.818,37.818,0,0,1,5.275.2,4.982,4.982,0,0,1,3.634,4.756,10.067,10.067,0,0,1-.319,3.024,4.78,4.78,0,0,1-4.6,3.42C363.478,363.562,362.148,363.541,360.82,363.541Zm2.772-9.067c0,2.251-.023,4.537.015,6.793,1.826,0,3.159-.428,3.159-2.122v-2.638c0-1.72-1.553-2.034-3.174-2.034Z" transform="translate(-284.916 -328.148)"/><path d="M424.7,292.87h2.811v7.62a3.8,3.8,0,0,1-3.895,3.948,6.216,6.216,0,0,1-2.758-.334,3.435,3.435,0,0,1-2.312-3.147c-.067-2.509-.023-7.538-.023-7.538V292.9h2.808v7.321a3.84,3.84,0,0,0,.111.988,1.481,1.481,0,0,0,1.7,1.073,1.336,1.336,0,0,0,1.427-1.14,5.4,5.4,0,0,0,.1-1.19v-6.14Z" transform="translate(-325.7 -286.259)"/><path d="M459.27,300.148h2.638a2.018,2.018,0,0,0,2.509,1.682,1.172,1.172,0,0,0,1.017-.844.947.947,0,0,0-.539-1.114c-.519-.293-1.087-.5-1.627-.756a20.039,20.039,0,0,1-2.538-1.292,2.875,2.875,0,0,1,.346-4.847,5.788,5.788,0,0,1,5.51-.082,2.913,2.913,0,0,1,1.6,2.893H465.58c0-1.621-2.251-1.55-2.825-.985a.879.879,0,0,0,.129,1.465,12.273,12.273,0,0,0,1.565.73c.695.293,1.427.525,2.084.879a3.175,3.175,0,0,1,.205,5.568,3.461,3.461,0,0,1-.994.363c-1.94.355-3.824.337-5.422-1.046A3.007,3.007,0,0,1,459.27,300.148Z" transform="translate(-354.502 -285.811)"/><path d="M286.38,304.337l-.712-2.007h-3.655l-.683,2.028h-3c1.4-3.81,2.772-7.552,4.17-11.368h2.679c1.389,3.742,2.778,7.5,4.205,11.347Zm-2.441-7.687h-.179c-.34,1.1-.68,2.2-1.049,3.379h2.262Z" transform="translate(-226.601 -286.344)"/><path d="M380.492,300.322v3.845H377.74V292.72s3.83,0,5.489.141a3.449,3.449,0,0,1,3.153,2.219,3.625,3.625,0,0,1-.486,3.895,4.135,4.135,0,0,1-3.156,1.345C382.036,300.343,381.333,300.322,380.492,300.322Zm.062-2.169c.689,0,1.284.026,1.879,0a1.4,1.4,0,0,0,1.392-1.2c.114-.879-.322-1.9-1.322-1.9h-1.949Z" transform="translate(-296.877 -286.153)"/><path d="M248.567,296.4H245.9a3.076,3.076,0,0,1-.173-.445,1.561,1.561,0,0,0-1.632-1.433,1.735,1.735,0,0,0-1.961,1.237,9.153,9.153,0,0,0-.044,4.748,1.72,1.72,0,0,0,1.843,1.331c.733,0,1.744-.463,1.808-1.354a1.76,1.76,0,0,1,.173-.46h2.62a3.651,3.651,0,0,1-1.758,3.279,5.834,5.834,0,0,1-5.9-.146,4.777,4.777,0,0,1-1.788-3.318,14.237,14.237,0,0,1,.07-3.517c.53-3.423,3.408-4.6,6.318-3.842a3.755,3.755,0,0,1,3.083,3.921Z" transform="translate(-198.81 -285.831)"/><path d="M240.13,363.491V352.12h2.749v9.226h4.759v2.145Z" transform="translate(-199.596 -328.145)"/><path d="M412.391,359.18a1.962,1.962,0,0,0-1.972,1.873,17.725,17.725,0,0,0,0,3.517,2.084,2.084,0,0,0,1.9,1.937h.155a2.081,2.081,0,0,0,1.9-1.937,17.725,17.725,0,0,0,0-3.517A1.971,1.971,0,0,0,412.391,359.18Z" transform="translate(-319.918 -333.135)" fill="none"/><path d="M409.582,354.123a4.955,4.955,0,0,0-8.713,0,7.749,7.749,0,0,0-.586,4.5c.293,2.761,2.052,4.689,4.95,4.639,2.9.056,4.66-1.879,4.95-4.639A7.877,7.877,0,0,0,409.582,354.123Zm-2.38,5.026a2.081,2.081,0,0,1-1.9,1.937h-.155a2.084,2.084,0,0,1-1.9-1.937,17.731,17.731,0,0,1,0-3.517,1.973,1.973,0,0,1,3.942,0,17.735,17.735,0,0,1,.012,3.517Z" transform="translate(-312.753 -327.727)"/><path d="M281.749,354.123a4.953,4.953,0,0,0-8.71,0,7.749,7.749,0,0,0-.586,4.5c.293,2.761,2.051,4.689,4.95,4.639,2.9.056,4.66-1.879,4.95-4.639A7.781,7.781,0,0,0,281.749,354.123Zm-2.377,5.026a2.084,2.084,0,0,1-1.9,1.937h-.155a2.081,2.081,0,0,1-1.9-1.937,17.735,17.735,0,0,1,0-3.517,1.972,1.972,0,0,1,3.939,0,17.733,17.733,0,0,1,.015,3.517Z" transform="translate(-222.386 -327.727)"/></g></svg>