<svg xmlns="http://www.w3.org/2000/svg" width="140" height="100" viewBox="0 0 140 100"><g transform="translate(-350 -1762)"><g transform="translate(380 1773.998)" opacity="0.86"><g transform="translate(0 0)"><path d="M79.284,54.564H0V0H79.284V54.563ZM69.9,42.233v2.192a6.25,6.25,0,0,0,2.5.567h.082c1.675,0,2.918-.916,2.954-2.178.053-1.285-1.513-1.734-2.895-2.131l-.16-.046c-.865-.236-1.784-.549-1.729-1.287.071-.827,1.095-1.12,1.949-1.12.993,0,1.325.47,1.656,1.457l.239.72h.349V38.4a5.739,5.739,0,0,0-2.171-.46,4.348,4.348,0,0,0-1.842.429A1.743,1.743,0,0,0,69.755,39.9c0,1.224,1.409,1.652,2.166,1.882l.062.019c.153.046.317.091.491.138,1,.273,2.249.613,2.14,1.517-.086.793-1.1,1.208-2.055,1.208-.095,0-.19,0-.282-.012l-.04,0c-.722-.057-1.2-.1-1.616-1.315l-.385-1.1ZM54.97,38.191h0c.067,0,.138,0,.21.01,1.232.111,1.4.807,1.4,1.472v.981l-.275.108a5.422,5.422,0,0,1-1.21.345l-.538.114-.294.062c-1.254.263-2.435.511-2.5,1.931-.034.908.915,1.7,2.116,1.763.062,0,.125.005.187.005a2.493,2.493,0,0,0,2.425-1.37v1.18H58.73v-.26h-.772V40.255c0-1.151-.2-2.192-2.632-2.3-.118-.005-.223-.008-.319-.008a4.168,4.168,0,0,0-.708.061c-.083.012-.173.026-.278.039a6.766,6.766,0,0,0-1.435.383v2.055h.331l.4-.859.049-.1C53.679,38.868,54,38.191,54.97,38.191Zm-9.829,6.6c.166,0,.333.011.51.022l.238.014V40.364c.107,0,.258.006.433.014.25.01.561.023.876.023a6.193,6.193,0,0,0,1-.066c2.56-.426,3.652-1.3,3.652-2.905,0-1.745-1.112-2.335-4.405-2.335H44.394V44.83l.158-.01C44.745,44.807,44.943,44.794,45.141,44.794Zm20.6-.261v.261h3.036v-.261h-.755V38.124H65.792V38.4h.791v6.133Zm-6.134,0v.261h3.33v-.261H61.847V41.942c0-.1,0-.2,0-.3-.008-1.244-.015-2.53,1.142-3.083a.507.507,0,0,1,.218-.056c.34,0,.551.462.811,1.113l.442,1.12h.349V38.309a2.429,2.429,0,0,0-1.012-.23,2.153,2.153,0,0,0-2.078,1.441v-1.4H59.566V38.4h.865v6.133Zm7.533-8.693a.747.747,0,1,0,.018,1.472.822.822,0,0,0,.9-.736A.854.854,0,0,0,67.135,35.84Zm6.391-11.152V32.14a.708.708,0,0,0,.706.707h.33a.692.692,0,0,0,.707-.707V22.33a.631.631,0,0,0-.66-.66h-.425c-.3,0-.538.277-.707.518L70.3,26.645l-3.16-4.457a1.034,1.034,0,0,0-.731-.518H65.98a.631.631,0,0,0-.66.66v9.81a.691.691,0,0,0,.707.707h.33a.708.708,0,0,0,.707-.707V24.688l2.358,3.3c.2.267.389.519.755.519h.236c.367,0,.564-.264.754-.519l2.357-3.3ZM56.312,21.67A2.658,2.658,0,0,0,53.6,24.264v5.943a2.632,2.632,0,0,0,2.616,2.641h3.845a2.632,2.632,0,0,0,2.617-2.641V24.264a2.658,2.658,0,0,0-2.712-2.594Zm-9.621,0A2.689,2.689,0,0,0,44,24.287v5.872A2.645,2.645,0,0,0,46.6,32.847h4.621a.656.656,0,0,0,.708-.661v-.259a.656.656,0,0,0-.708-.661H47.327c-1.048,0-1.58-.492-1.58-1.462V24.782A1.383,1.383,0,0,1,47.3,23.25h3.632a.656.656,0,0,0,.707-.661V22.33a.655.655,0,0,0-.707-.66Zm-12.427,0a.65.65,0,0,0-.683.66v9.857a.646.646,0,0,0,.66.661H41.5a.656.656,0,0,0,.708-.661v-.259a.656.656,0,0,0-.708-.661H35.326V28.085H40.7a.656.656,0,0,0,.707-.661v-.26a.655.655,0,0,0-.707-.66H35.326V23.25h5.847a.656.656,0,0,0,.708-.661V22.33a.656.656,0,0,0-.708-.66Zm-9.173,0a.691.691,0,0,0-.706.707v10.47h7.333a.656.656,0,0,0,.707-.661v-.259a.656.656,0,0,0-.707-.661H26.129V22.378a.708.708,0,0,0-.707-.707Zm-10.445,0a.65.65,0,0,0-.684.66v9.857a.646.646,0,0,0,.661.661h7.263a.655.655,0,0,0,.706-.661v-.259a.655.655,0,0,0-.706-.661H15.707V28.085h5.377a.656.656,0,0,0,.707-.661v-.26a.655.655,0,0,0-.707-.66H15.707V23.25h5.848a.656.656,0,0,0,.707-.661V22.33a.655.655,0,0,0-.707-.66Zm-10.8,0a.67.67,0,0,0-.707.66v.26a.675.675,0,0,0,.731.66h3.09v8.89a.692.692,0,0,0,.707.707H8A.708.708,0,0,0,8.7,32.14V23.25h3.112a.67.67,0,0,0,.707-.66v-.26a.675.675,0,0,0-.731-.66ZM54.446,44.6a1.222,1.222,0,0,1-.938-.389,1.341,1.341,0,0,1-.315-1.025c.134-1.278.563-1.392,1.709-1.7.273-.073.582-.155.94-.266l.736-.229v.628c0,.083,0,.16,0,.232a4.949,4.949,0,0,1-.038.811,2.2,2.2,0,0,1-1.986,1.931C54.518,44.6,54.482,44.6,54.446,44.6Zm-7.768-4.761c-.306,0-.579-.011-.789-.032V35.652c.285-.016.728-.025,1.156-.025.516,0,.981.014,1.308.039,1.229.091,1.933.76,1.933,1.835,0,1.283-1.036,2.166-2.7,2.3C47.3,39.826,46.984,39.837,46.678,39.837Zm12.959-8.569H56.618a1.272,1.272,0,0,1-1.273-1.3V24.547a1.3,1.3,0,0,1,1.3-1.3h2.994a1.314,1.314,0,0,1,1.3,1.3V29.97A1.3,1.3,0,0,1,59.637,31.268Z" transform="translate(0)"/><g transform="translate(70.294 58.239)"><path d="M-15.592-36.636l-.032-20.96h-3.554c-.37.493-.12,2.716-1.245,3.14-3.809-.854-.338-1.287-1.645-3.14-.164.009-1.717,0-1.882,0,.178.024.841.769-.152,1.623-1.334,8.786,1.118,12.366-.122,19.331Z" transform="translate(24.513 57.596)"/></g><g transform="translate(20.535 61.138)"><path d="M-3.464-6.278c1.426-.673,1.437-2.162,1.5-3.139-.432-.485-2.123-.515-2.8-.391-.939.786-.124,2.188-.684,3.1.37.789,1.362.237,1.982.429" transform="translate(5.445 9.87)"/></g><g transform="translate(30.664 74.412)"><path d="M0-1.253l.423.121a2.386,2.386,0,0,0,1.316-.076,2.827,2.827,0,0,0-.423-.762A12.694,12.694,0,0,0,0-1.253" transform="translate(0 1.969)"/></g><g transform="translate(19.167 58.225)"><path d="M-20.29-12.971c-.86-2.284,2.248-3.215,3.446-4.609l1.608.9c-.175,1.56-3.024,1.849-2.851,3.539.3.252.557.677.944.758.135.421-.216.677-.471.932-1.25.5-1.894-.72-2.676-1.516m1.627,9.528A3.036,3.036,0,0,1-18.69-.9L-22.85-.75v-.533a8.774,8.774,0,0,1,2.449-2.2l-.836-.235c-1.189-.813,1.608-1.978,2.041-2.3l1.124,1.8a.889.889,0,0,1-.591.776m-8.276,2c-.9-1.546.148-4.124.4-5.6.211-.211.429-.5.792-.384.249.808-.937,1.335-.144,2.034.821-.243,1.9.5,2.723-.137-.43-.7-1.327-.348-1.936-.633v-.384l1.835-.111c.285.39,1.584.757,1.3,1.5-1.222,1.725-3.311,2.731-4.963,3.716m-1.445-8.723c.19-.317.565-.13.837-.18.1.774,1.306-.183.84.828h-.135a1.144,1.144,0,0,1-1.542-.648M-26-9.711c.622-.362,1.488-.3,1.344.892h-1.006c-.194-.241-.484-.481-.338-.892m.755-8.423c.174-.281.429-.813.934-.639-.043.422-.256,1.2-.934.882ZM-24.065-8.7c.968.212,2.014-.525,2.725.245-.319.673-.319,1.794-1.435,1.161-.5-.388-1.616-.213-1.538-1.161Zm.106-8.8c.073-.807,1.041-.491,1.58-.739l.109.35c-.506.389-.865,1.235-1.69.916Zm2.874,6.129a3.33,3.33,0,0,1-2.336.136,1.97,1.97,0,0,0,.25-.912c.438-.355.9-1.127,1.692-.883a2.358,2.358,0,0,1,.394,1.658m-.018-6.4-.174,2.2c-.087.346-.351,1.033-.969.773-.749.177-.356-.735-.442-1.072.661-.562.84-1.774,1.585-1.9m-6.987,6.536h-.536c-.755-.277-2.409-.665-2.477-1.543,1.043.277,1.973.8,3.013,1.158Zm12.964,2.289c-1,.035-1.869,1.484-2.729.882.5-1.41,1.614-2.568,2.084-3.942.825-1.872,2.172-5.954,1.6-8.385h-3.853c-1.255.355-.326,3.6-1.624,3.811a15.757,15.757,0,0,0-1.27-3.788H-23c.158,1.39-.055,1.457-.168,1.6-.715.038-.643-1.087-1.543-.49-.788-.142-1,1.129-1.829.883-.282-.673-1.076-1.548-1.94-1.025.753,1.625,4.524,2.293,2.732,4.965-.363.776-.074,1.9-1.039,2.292-1.693-.46-3.269-1.094-4.958-1.516.181.634-.288,1.516-.11,2.151,1.8.241,2.338,2.111,3.876,2.674a.873.873,0,0,1,.4.917c-1.082.46-2.231-.494-3.234-.917-.253.1-.115.353-.147.526.932,1.1,3.949.633,2.979,2.92-.825,1.871-.644,4.969-3.479,5.221-.256.561.426.519.646.77,2.436.247,4.955-2.081,7-.141.681,0,1.545-.428,2.085.127h6.123c1.154-2.229.262-3.656.371-5.7.135-.518-1.432-1.045-2.618-.761-.213-.143-.073-.426-.1-.669.787-.916,3.947.456,3.229-1.766,0-.173,0-.6-.4-.634" transform="translate(31.899 20.392)"/></g><g transform="translate(0.071 60.417)"><path d="M-10.4-.142a28.987,28.987,0,0,0-5.949.132V3.033h.717a7.124,7.124,0,0,0,2.32.276c3.22.328,5.932-.144,9.128-.318a3.164,3.164,0,0,0-1.055-.173c-.542-.41-.885-.675-.756-1.325C-5.146.59-3.594,1.336-2.6.8c.878.338.292,1.295.5,1.888-.087.167-.183.153-.285.245.978-.007,2.02.024,3.145.127V-.094C-3.992-.4-7.345.043-10.4-.142" transform="translate(16.347 0.223)"/></g><g transform="translate(38.866 58.238)"><path d="M-4.982-15.01a2.83,2.83,0,0,1-2.2-.1c.317-.709,1.082-.287,1.614-.395.184.249.564-.033.586.494M-2.7-7.521v.928c-1.234.427-2.379,1.772-3.727,1.179v-.841c.54-.252,1.165.507,1.62-.674.739.088,1.345-1,2.107-.591M-3.754-20.175l-.582.653c-.228,0-.638-.7-.7-.978.182-.211,1.193.08,1.286.325m.05,1.509c.287.211.9.228.581,1.019-.36.322-.628-.515-.965-.617Zm.69,8.566v1.076c-.346-.057-.8.179-1.064-.179.07-.832.718-.774,1.064-.9m.39-2.811h-2v-.737h2ZM-1.5-3.86c-.474,1.106-1.348.3-1.953,0-.5-.2-.9,1.259-1.367.2-.023-.254.113-.355.158-.556,1.1-.756,2.24-.148,3.162.354M-7.493-8.631h1.37v.384h-1.37Zm2.343-8.644a3.119,3.119,0,0,1-1.52.546l-.3-.991c.567-.049,1.6-.33,1.818.445m-1.693-1.538h1.052v.383H-6.843Zm6.473.809v1.187c-.551-.064-1.218.181-1.7-.191.239-.862,1.148-.808,1.7-1m-4.292-4.4a24.057,24.057,0,0,0,4.812.636V-23.6H-6.723a9.551,9.551,0,0,1-1.109,3.48,3.853,3.853,0,0,1,1.722.288v.384a9.424,9.424,0,0,0-1.722-.245v5.947h.759c.044.14.18.215.15.388l-.15.284h-.759v.723a2.4,2.4,0,0,0,.759.017.36.36,0,0,0,.049.1c.358.066.609.54,1.054.291v.383h-.8a.609.609,0,0,1-.468-.186,1.171,1.171,0,0,1-.595.076v.547a5.191,5.191,0,0,1,1.971.058c.067.144.2.216.157.392l-.157.278a8.372,8.372,0,0,0-1.971-.167v4.6c.216.041.433.1.6.143.063.175.245.28.245.49a1.206,1.206,0,0,1-.849.114v2.572H.15V-5.214a2.851,2.851,0,0,1-1.3-.042A5.52,5.52,0,0,1-.133-7.124L.15-10.562a8.346,8.346,0,0,0-1.968.167l-.156-.278c-.041-.176.093-.248.156-.392A5.181,5.181,0,0,1,.15-11.123v-.547a1.116,1.116,0,0,1-.91-.273c-.024-.18.111-.249.158-.387a2.357,2.357,0,0,0,.752-.017v-.723H-.6l-.158-.284c-.024-.172.111-.247.158-.388H.15v-5.947a9.387,9.387,0,0,0-1.719.245v-.384A3.861,3.861,0,0,1,.15-20.117v-1.171c-1.419-.079-2.828-.227-4.164-.339-.338-.18-.829-.14-1.058-.494a.384.384,0,0,1,.41-.281" transform="translate(7.832 23.597)"/></g><g transform="translate(0.028 58.195)"><path d="M-11.589-2.333c3.391,0,7.116-.308,10.554-.043V-3.668H-18.211c-.018.536,0,1.376,0,1.376a41.471,41.471,0,0,1,6.622-.041" transform="translate(18.219 3.668)"/></g><g transform="translate(0.065 64.373)"><path d="M-6.916-2.434c-.962,0-2.007-.939-2.972-1.251h-.481l-.483.106-.021,14.572H6.3V-3.746C1.816-4.263-2.091-2.094-6.916-2.434" transform="translate(10.873 3.826)"/></g><g transform="translate(48.829 58.183)"><path d="M-30.388-16.89c-.392-.035-1.276-.121-1.35-.685-.091-.613-.125-1.466,1.237-1.217,1.013.262,1.417,1.663.113,1.9m-2.43,7.653c-.427.481-.307,2.635-1.341,1.518-1.1-2.9.39-4.9.639-7.475.643-.7,1.353-.963,1.757-.784.1.021.639,1.314.729,1.332.122,1.774-.953,1.862.084,4.8-.28.481-1.543.235-1.868.606m-2.565-9.4a1.964,1.964,0,0,1,1.372-.617,1.411,1.411,0,0,1,.539,1.553c-.038.457-.539.349-.9.349-.5-.176-1.157-.689-1.011-1.286m-1.456-1.1a1.624,1.624,0,0,1-1.828,1.123c-.469-.355-.312-1.027-.421-1.519.109-.352,1.142-.633,1.576-.525.179.245.813.569.673.92M-38.945-22.7c.214.848-.951,1-1.389,1.046a1.791,1.791,0,0,1-.78-2c.327-.324.6-.744,1.193-.581.318.525,1.244.791.976,1.537M-41.338-8.566V-9.873l-.99-.935-.417-1.4a10.027,10.027,0,0,1,.457-5.44.11.11,0,0,1-.037.025c-.361-.108-.934.211-1.151-.243.326-.532-.139-1.344.4-1.8.393-.073,1.369-.054,1.621.227a2.349,2.349,0,0,1-.441,1.5,1.277,1.277,0,0,1,1.187.31,82.812,82.812,0,0,0,.627,10.638ZM-45.231-22.11a2.235,2.235,0,0,1-.944-2.2c.433-1.016,1.892-.677,2.5-.252.463.678,1.294,1.482.019,1.838.127,1.637-1.062,1.379-1.571.613M-28-15.342c-1-2.434,1.285-10.534-2.414-11.2a1.336,1.336,0,0,0-1.066.378,2.931,2.931,0,0,1,1.244,1.933c-.864,1.9-2.655-.423-3.878.213v1.547c-.506.421-.865.985-1.578.773-.434-.493-1.009-.843-.8-1.543.438-.917,1.438-.565,2.085-.99a.771.771,0,0,1-.04-.066c-1.228-.3-1.067-2.215-3.142-2.215h-3.964c-1.84.568-4.106,1.619-6.227.013l.4,2.613.263.893-.007.78.934.813-.972.83.331,2.011c.733.218,1.522.254,1.558.925-.134,1.1-.958,2.356-.988,3.49-.049,1.4.732,7.2.709,8.6.757-.069,4.382-.215,5.123-.592,0,.028,1.01.563,1.01.592,1.287.125,2.971.444,2.551-1.789l-.931-5.939c-1.106-3.041.931-3.8,1.612-3.834l.536.488a8.434,8.434,0,0,0-.34,1.744,1.1,1.1,0,0,1,.173.848.82.82,0,0,1-.184.713c.214,2.757,1.532,5.156,1.556,7.789l3.472-.021,1.263-.983-.265-2.446.147-2.305L-29.9-15.57a11.868,11.868,0,0,1,1.655.5Z" transform="translate(47.775 26.553)"/></g></g></g><rect width="140" height="100" transform="translate(350 1762)" fill="none"/></g></svg>