<svg xmlns="http://www.w3.org/2000/svg" width="121.624" height="49.447" viewBox="0 0 121.624 49.447"><g transform="translate(0 0)" opacity="0.86"><g transform="translate(0 0)"><path d="M108.427,54.627a2.7,2.7,0,0,0-2.533-.258,4.574,4.574,0,0,0-2.147,2.318c.086-1.288.215-2.4.343-3.392v-.043a1.86,1.86,0,0,0,.043-.215.464.464,0,0,0-.129-.3c-.215-.172-.472-.043-.6,0a2.426,2.426,0,0,0-1.374,1.889A104.344,104.344,0,0,0,101,69.953c0,2.49.086,4.937.258,6.955A2.6,2.6,0,0,0,103.1,79.4c.129.043.429.129.6-.086a.5.5,0,0,0,.129-.558h0a111.268,111.268,0,0,1-.515-11.806,1.867,1.867,0,0,0,.3.258,3.168,3.168,0,0,0,2.962.3c1.631-.644,2.919-2.533,3.52-5.109C111,58.834,110.316,55.743,108.427,54.627Zm-.472,6.568c-.429,2.189-1.288,3.864-2.361,4.508a1.065,1.065,0,0,1-.9.172h0c-.73-.215-1.073-1.417-.987-3.091.215-3.177,1.546-5.5,2.748-6.4a1.236,1.236,0,0,1,.859-.343C107.7,56.172,108.513,58.233,107.955,61.2Z" transform="translate(-57.639 -30.047)"/><path d="M162.684,30.122l-.944-.6c-4.98-3.134-11.162-7.084-11.248-12.192a9.9,9.9,0,0,1,2.791-6.869,9.334,9.334,0,0,1,6.526-2.876,6.637,6.637,0,0,1,4.851,1.932,8.464,8.464,0,0,1,2.318,6.053,9.526,9.526,0,0,1-1.846,5.538.711.711,0,0,0-.172.859c.215.343.73.3.9.258,2.361-.343,4.25-3.52,4.25-7.212,0-4.293-2.662-9.316-10.132-9.359a12.96,12.96,0,0,0-9.144,3.692,11.327,11.327,0,0,0-3.434,8.028c0,6.611,6.225,10.518,11.248,13.7l2.147,1.374c3.907,2.533,5.667,4.336,4.508,7-.944,2.147-4.594,2.619-7.47,2.361s-6.44-1.245-7.127-4.551c-.129-.644-.472-.687-.644-.687-.558.043-.816.859-.9,1.546a5.1,5.1,0,0,0,1.331,3.778c1.417,1.631,3.735,2.533,6.869,2.662,3.435.172,8.071-.816,9.917-4.293C168.651,37.55,169.209,34.244,162.684,30.122Z" transform="translate(-84.119 -3.225)"/><path d="M21.895,25.438a2.436,2.436,0,0,0,2.147-1.2.7.7,0,0,0,.172-.386.387.387,0,0,0-.043-.215.7.7,0,0,0-.6-.386,10.744,10.744,0,0,0-1.717-.129A212.936,212.936,0,0,1,22.839.753h0a.614.614,0,0,0-.172-.644.543.543,0,0,0-.6-.043,2.791,2.791,0,0,0-1.674,2.4c-.687,3.606-1.288,11.806-1.46,20.521a77.322,77.322,0,0,0-11.162.515V21.231A141.239,141.239,0,0,1,8.672,3.5V3.414a.72.72,0,0,0-.258-.6.589.589,0,0,0-.6,0A2.923,2.923,0,0,0,6.139,5.132,113.372,113.372,0,0,0,4.722,23.892a23.9,23.9,0,0,0-2.576.558A3.341,3.341,0,0,0,.043,27.2,2.421,2.421,0,0,0,0,27.5a.68.68,0,0,0,.215.515.825.825,0,0,0,.816.086,23.247,23.247,0,0,1,3.735-1.03,75,75,0,0,0,.515,9.788A3.108,3.108,0,0,0,7.9,39.906a.713.713,0,0,0,.687-.172.615.615,0,0,0,.172-.429v-.172a118.5,118.5,0,0,1-.9-12.622,90.654,90.654,0,0,1,11.076-1.03,111.961,111.961,0,0,0,.558,12.665c.258,2.232,1.5,2.919,2.447,3.091a.824.824,0,0,0,.773-.172.572.572,0,0,0,.172-.429v-.129A111.808,111.808,0,0,1,21.895,25.438Z" transform="translate(0 0)"/><path d="M231.054,46.656c-1.417-3.177-1.717-5.452-.816-6.268h0a.784.784,0,0,0,.343-.558.633.633,0,0,0-.215-.515,1.711,1.711,0,0,0-1.159-.6,1.528,1.528,0,0,0-1.116.472c-1.245,1.159-2.232,3.392-3.005,6.783L225,45.884a.485.485,0,0,0-.515.172,1.848,1.848,0,0,0-.429,1.331,3.782,3.782,0,0,0,.129.944,7.736,7.736,0,0,1,.215.816,1.751,1.751,0,0,0-.086.3c-.043.172-.129.386-.172.558a4.166,4.166,0,0,1-1.631,1.846,1.137,1.137,0,0,1-.944.172c-.6-.172-1.374-1.5-1.717-3.52a6.709,6.709,0,0,0,3.434-4.508,5.244,5.244,0,0,0,.129-1.116,4.819,4.819,0,0,0-1.159-3.263,2.874,2.874,0,0,0-1.975-1.073,2.636,2.636,0,0,0-1.932.9,8.928,8.928,0,0,0-1.674,2.919,113.567,113.567,0,0,1,1.116-14.124v.043a.481.481,0,0,0-.086-.515.577.577,0,0,0-.515-.129H217.1a2.451,2.451,0,0,0-1.417,1.932,78.005,78.005,0,0,0-1.2,18.718,6.857,6.857,0,0,1-2.962,3.52,1.732,1.732,0,0,1-1.46,0c-.859-.429-1.374-2.189-1.288-4.508.129-2.919,1.2-5.366,1.975-6.01a.4.4,0,0,1,.3-.129c.043,0,.086.043.172.172a5.625,5.625,0,0,1-.129,4.036h0a.8.8,0,0,0,.043.429c.129.172.3.172.515.172h.043c.944-.043,1.932-1.159,1.932-2.962a3.862,3.862,0,0,0-1.889-3.22,2.128,2.128,0,0,0-2.147-.086A4.371,4.371,0,0,0,208,41.2c-.773.987-1.932,2.576-2.018,2.662a5.611,5.611,0,0,0-.472.515,5.713,5.713,0,0,0-2.018-3.434,1.853,1.853,0,0,0-1.2-.343,1.249,1.249,0,0,0-1.46-.3h0c-1.331.73-2.662,3.263-2.962,5.753-.644,5.281,2.018,6.783,3.177,7.169a3.033,3.033,0,0,0,2.833-.429c1.245-.987,1.932-2.919,1.932-5.452a10.46,10.46,0,0,0-.043-1.159c.258-.3.515-.558.773-.9-.043.343-.086.644-.129,1.03-.472,5.366,2.018,6.869,3.563,7.3a4.155,4.155,0,0,0,3.22-.386,5.3,5.3,0,0,0,1.546-1.546v.086a2.692,2.692,0,0,0,1.8,2.576h.086c.086,0,.429.043.6-.129a.535.535,0,0,0,.129-.515c-1.116-7,1.417-12.192,3.048-12.922.343-.172.515-.043.6.086a3.088,3.088,0,0,1,.215,2.189,6.517,6.517,0,0,1-3.349,4.379h0A1.008,1.008,0,0,0,217.4,48.5c.343,2.876,1.932,4.98,4.036,5.366a3.558,3.558,0,0,0,3.005-.687,4.542,4.542,0,0,0,1.159-1.5,4.326,4.326,0,0,0,2.576,1.975,3.277,3.277,0,0,0,2.962-.9C232.256,51.508,232.3,49.49,231.054,46.656Zm-28.936-4.551c.429.086.944,1.116,1.2,2.7a2.679,2.679,0,0,1-1.073-1.417,3.147,3.147,0,0,1-.172-.944C202.076,42.277,202.076,42.149,202.118,42.106ZM203.492,47c0,2.447-.687,4.121-1.374,4.679a.617.617,0,0,1-.558.172h0c-.343-.086-1.417-1.245-1.417-3.864a7.276,7.276,0,0,1,.043-.944,13.51,13.51,0,0,1,.472-2.49A3.423,3.423,0,0,0,203.492,47Zm26.317,4.594a.721.721,0,0,1-.644.129,4.88,4.88,0,0,1-3.048-2.833v-.172a4.716,4.716,0,0,1,.129-.472,31.773,31.773,0,0,1,1.374-4.722,12.65,12.65,0,0,0,1.159,3.95l.129.258C229.466,49.146,230.281,51.035,229.809,51.593Z" transform="translate(-112.864 -15.766)"/><path d="M72.306,54.627a2.7,2.7,0,0,0-2.533-.258,4.574,4.574,0,0,0-2.147,2.318c.086-1.288.215-2.4.343-3.392v-.043a1.859,1.859,0,0,0,.043-.215.464.464,0,0,0-.129-.3c-.215-.172-.472-.043-.6,0a2.426,2.426,0,0,0-1.374,1.889,78.566,78.566,0,0,0-.859,9.016c-.515,1.374-1.2,2.1-1.46,2.061a.3.3,0,0,1-.129-.172c-.644-1.03-.9-5.409.129-9.66a.535.535,0,0,0-.129-.515.577.577,0,0,0-.515-.129,1.986,1.986,0,0,0-.9.515,3.439,3.439,0,0,0-1.073-1.159,2.292,2.292,0,0,0-2.232-.129c-1.588.644-2.919,2.7-3.649,5.667-1.116,4.551.386,6.869,2.189,7.513a2.756,2.756,0,0,0,2.4-.043,3.74,3.74,0,0,0,1.588-2.147,3.274,3.274,0,0,0,1.889,2.018,2.266,2.266,0,0,0,1.76-.043c0,.859-.043,1.717-.043,2.576,0,2.49.086,4.937.258,6.955a2.6,2.6,0,0,0,1.846,2.49.542.542,0,0,0,.6-.086.5.5,0,0,0,.129-.558h0A111.271,111.271,0,0,1,67.2,66.991a1.867,1.867,0,0,0,.3.258,3.168,3.168,0,0,0,2.962.3c1.631-.644,2.919-2.533,3.52-5.109C74.882,58.834,74.195,55.743,72.306,54.627ZM60.929,58.963c-.172,3.692-1.288,6.225-2.275,7a.821.821,0,0,1-.515.215c-.472-.086-1.03-.987-1.03-2.833a11.513,11.513,0,0,1,.172-1.975c.386-2.49,1.631-4.679,2.533-5.281a.628.628,0,0,1,.343-.129C60.543,56.086,61.015,57.16,60.929,58.963Zm10.9,2.232c-.429,2.189-1.288,3.864-2.361,4.508a1.065,1.065,0,0,1-.9.172h0c-.687-.215-1.073-1.417-.987-3.091.215-3.177,1.546-5.5,2.748-6.4a1.236,1.236,0,0,1,.859-.343C71.576,56.172,72.392,58.233,71.834,61.2Z" transform="translate(-31.221 -30.047)"/><path d="M131.817,56.975h0a.631.631,0,0,0-.172-.515.642.642,0,0,0-.558-.043c-.773.172-1.245.687-1.546,1.8a30.028,30.028,0,0,0-.472,3.993l-.129,1.5c-.386,3.907-1.245,4.25-1.417,4.293-.258.043-.6-.343-.859-1.03-.859-2.147-.515-7.556.043-10.432a.657.657,0,0,0-.086-.558c-.172-.172-.343-.129-.558-.086h0c-.644.086-1.159.73-1.374,1.631-.944,4.121-1.116,9.4.429,11.548a2.081,2.081,0,0,0,3.005.515,3.977,3.977,0,0,0,1.073-1.159c.043,1.674.129,3.22.258,4.594.086.859.129,1.588.129,2.232,0,1.717-.258,2.7-.859,3.091a1.148,1.148,0,0,1-1.116.086c-1.116-.429-2.147-2.1-2.7-4.422-.086-.429-.386-.515-.472-.515a.621.621,0,0,0-.6.386,5.71,5.71,0,0,0,2.533,6.611,3.154,3.154,0,0,0,3.134-.687c1.288-.987,2.7-2.962,2.318-6.826A80.564,80.564,0,0,1,131.817,56.975Z" transform="translate(-70.511 -31.881)"/><g transform="translate(117.932 19.857)"><path d="M276.546,49.988a1.806,1.806,0,0,1-1.846-1.846,1.842,1.842,0,0,1,1.846-1.889,1.868,1.868,0,0,1,0,3.735Zm0-3.434a1.546,1.546,0,1,0,1.5,1.546A1.431,1.431,0,0,0,276.546,46.554Zm.429,2.49-.343-.73h-.386v.73H275.9V47.112h.73a.611.611,0,0,1,.687.6.575.575,0,0,1-.343.558l.343.773Zm-.343-1.631h-.386v.6h.386c.215,0,.343-.086.343-.3S276.847,47.412,276.632,47.412Z" transform="translate(-274.7 -46.253)"/></g></g></g></svg>