<svg xmlns="http://www.w3.org/2000/svg" width="30" height="32.811" viewBox="0 0 30 32.811"><path d="M225.57,199.347c-2.552-.135-2.791-1.282-2.755-4.066v-7.654c0-.057-.007-.112-.009-.168V187.3c0-2.894-1.782-4.627-5.047-4.975a8.227,8.227,0,0,0-1.6-.058c-.187.008-.369.021-.542.042l-.039,0-.019,0a4.38,4.38,0,0,0-3.864,2.974,3.609,3.609,0,0,0-1.322-2.169c-.951-.714-2.337-.974-4.376-.806l-.011,0-.625.069-.075.008-3.106.341,10.527-6.507h-6.148l-4.692,6.193V167.23l-.281.263a8.9,8.9,0,0,1-4.448,2.2l-.14.023v0h-1.27v.449H197v22.923h4.87V183.24l3.278-.174c1.676.369,1.854,1.55,1.824,3.948v1.824l4.907-1.262v-.13c0-2.881,1.759-4.387,3.5-4.387,1.593,0,2.476,2.043,2.533,4.038v2.413l-3.981.412c-4.115.481-6.419,2.283-6.49,5.082.073,3.2,2.379,5.039,6.325,5.039,2.332,0,3.787-1,4.335-2.99a3.607,3.607,0,0,0,1.278,2.1c1.206.93,3.122,1.116,6.211.6l.14-.023v-.372Zm-7.661-4.5c0,2.706-1.165,4.387-3.04,4.387-1.642,0-2.377-2.133-2.377-4.246,0-2.8,1.244-4.5,3.5-4.782.351-.036.7-.081,1.054-.125.287-.037.575-.073.863-.1Z" transform="translate(-195.73 -167.23)"/></svg>