<svg xmlns="http://www.w3.org/2000/svg" width="143.787" height="50.324" viewBox="0 0 143.787 50.324"><g transform="translate(0.001 0)" opacity="0.86"><path d="M146.215,143.739c5.522,0,5.128-3.026,5.128-4.175V136.84H141v2.724c0,1.149-.3,4.175,5.22,4.175" transform="translate(-127.566 -115.841)"/><path d="M18.649,37.3A18.65,18.65,0,0,1,5.462,5.463,18.65,18.65,0,0,1,31.836,31.838,18.528,18.528,0,0,1,18.649,37.3Zm-8.1-23.771v6.048c0,5.766,4.966,6.627,7.925,6.627s7.926-.861,7.926-6.627V13.53Zm7.925,9.792h0c-2.06,0-3.527-.427-4.36-1.27a3.579,3.579,0,0,1-.86-2.734c0-.061,0-.118,0-.171V16.423H23.6v2.724c0,.065,0,.135,0,.211a3.523,3.523,0,0,1-.819,2.7c-.814.831-2.263,1.252-4.309,1.252v.006Z" transform="translate(0 4.584)"/><rect width="75.129" height="2.065" transform="translate(51.852 48.259)"/><path d="M252.474,84.111a2.577,2.577,0,0,0-2.614-2.1c-2.367,0-3.254,2.014-3.254,4.112,0,2,.887,4.009,3.254,4.009a2.7,2.7,0,0,0,2.717-2.684h2.548a5.056,5.056,0,0,1-5.264,4.9c-3.707,0-5.89-2.768-5.89-6.221,0-3.556,2.183-6.325,5.89-6.325a4.842,4.842,0,0,1,5.154,4.311Z" transform="translate(-192.634 -79.8)"/><path d="M280.807,88.91a4.571,4.571,0,1,1-4.477,4.58A4.257,4.257,0,0,1,280.807,88.91Zm0,7.363c1.627,0,2.113-1.392,2.113-2.768s-.486-2.783-2.113-2.783-2.095,1.392-2.095,2.783.486,2.754,2.095,2.754Z" transform="translate(-213.081 -85.556)"/><path d="M307.237,88.91a4.571,4.571,0,1,1-4.477,4.58A4.257,4.257,0,0,1,307.237,88.91Zm0,7.363c1.627,0,2.113-1.392,2.113-2.768s-.486-2.783-2.113-2.783-2.095,1.392-2.095,2.783.486,2.754,2.095,2.754Z" transform="translate(-229.781 -85.556)"/><path d="M329.537,89.134H331.8v1.1h.033a2.89,2.89,0,0,1,2.577-1.344c2.717,0,3.943,2.209,3.943,4.664,0,2.316-1.274,4.477-3.807,4.477a3.085,3.085,0,0,1-2.6-1.307h-.033v4.13H329.53ZM335.98,93.5c0-1.377-.552-2.8-2.08-2.8s-2.065,1.392-2.065,2.8.537,2.75,2.084,2.75S335.98,94.9,335.98,93.5Z" transform="translate(-246.696 -85.544)"/><path d="M357.49,94.079c.066,1.509.806,2.209,2.132,2.209a1.962,1.962,0,0,0,1.878-1.123h2.1a3.9,3.9,0,0,1-4.049,2.916,4.226,4.226,0,0,1-4.418-4.561,4.349,4.349,0,0,1,4.418-4.58c2.945,0,4.377,2.485,4.211,5.154Zm3.877-1.509c-.221-1.207-.736-1.841-1.9-1.841a1.878,1.878,0,0,0-1.981,1.841Z" transform="translate(-262.872 -85.575)"/><path d="M381,89.152h2.268v1.609h.033a3.063,3.063,0,0,1,2.765-1.841,1.744,1.744,0,0,1,.523.085v2.209a4.592,4.592,0,0,0-.858-.081c-1.745,0-2.349,1.255-2.349,2.783v3.91H381Z" transform="translate(-279.218 -85.562)"/><path d="M245.39,124.07h5.4c2.986,0,4.142,1.9,4.142,3.843s-1.156,3.84-4.142,3.84h-2.768v4.3H245.39Zm2.632,5.636h2.047c1.222,0,2.316-.269,2.316-1.793s-1.1-1.8-2.316-1.8h-2.047Z" transform="translate(-193.531 -107.772)"/><path d="M273.68,132.652h2.264v1.609h.037a3.063,3.063,0,0,1,2.765-1.841,1.745,1.745,0,0,1,.523.085v2.209a4.592,4.592,0,0,0-.858-.081c-1.745,0-2.349,1.255-2.349,2.783v3.91H273.68Z" transform="translate(-211.406 -113.048)"/><path d="M293.11,132.41a4.571,4.571,0,1,1-4.48,4.58A4.259,4.259,0,0,1,293.11,132.41Zm0,7.363c1.627,0,2.113-1.392,2.113-2.768s-.486-2.783-2.113-2.783-2.1,1.392-2.1,2.783.486,2.754,2.1,2.754Z" transform="translate(-220.853 -113.042)"/><path d="M314.755,128.97H313.33v-1.594h1.425v-.67c0-1.528.957-2.636,2.9-2.636.42,0,.858.052,1.259.07v1.778a7.455,7.455,0,0,0-.872-.052c-.637,0-.906.269-.906.99v.519h1.646v1.594h-1.646v7.079h-2.382Z" transform="translate(-236.46 -107.772)"/><path d="M331.1,137.579c.066,1.509.8,2.209,2.128,2.209a1.968,1.968,0,0,0,1.881-1.123h2.095a3.9,3.9,0,0,1-4.049,2.916,4.228,4.228,0,0,1-4.418-4.561,4.346,4.346,0,0,1,4.418-4.58c2.945,0,4.381,2.485,4.211,5.154Zm3.873-1.509c-.217-1.207-.736-1.841-1.9-1.841a1.874,1.874,0,0,0-1.977,1.841Z" transform="translate(-246.197 -113.061)"/><path d="M356.139,138.574c0,1.042.887,1.473,1.841,1.473.688,0,1.561-.269,1.561-1.1,0-.736-.99-.972-2.7-1.344-1.377-.3-2.754-.788-2.754-2.312,0-2.209,1.914-2.787,3.773-2.787s3.641.637,3.825,2.768h-2.264c-.066-.924-.773-1.174-1.627-1.174-.537,0-1.325.1-1.325.806,0,.854,1.344.972,2.7,1.292s2.75.821,2.75,2.43c0,2.282-1.981,3.019-3.957,3.019s-3.976-.755-4.075-3.052Z" transform="translate(-262.088 -113.099)"/><path d="M379.426,138.574c0,1.042.887,1.473,1.841,1.473.688,0,1.561-.269,1.561-1.1,0-.736-.99-.972-2.7-1.344-1.377-.3-2.754-.788-2.754-2.312,0-2.209,1.914-2.787,3.777-2.787s3.637.637,3.821,2.768h-2.264c-.066-.924-.769-1.174-1.627-1.174-.537,0-1.325.1-1.325.806,0,.854,1.344.972,2.7,1.292s2.754.788,2.754,2.382c0,2.282-1.981,3.019-3.957,3.019s-3.976-.755-4.075-3.052Z" transform="translate(-276.804 -113.099)"/><path d="M403.912,126.032H401.53V124.07h2.382Zm-2.382,1.344h2.382v8.673H401.53Z" transform="translate(-292.19 -107.772)"/><path d="M415.417,132.41a4.571,4.571,0,1,1-4.477,4.58A4.257,4.257,0,0,1,415.417,132.41Zm0,7.363c1.627,0,2.113-1.392,2.113-2.768s-.486-2.783-2.113-2.783-2.095,1.392-2.095,2.783.486,2.754,2.095,2.754Z" transform="translate(-298.136 -113.042)"/><path d="M438.1,132.645h2.264v1.207h.052a3.092,3.092,0,0,1,2.647-1.443c2.533,0,3.173,1.428,3.173,3.575v5.334h-2.382v-4.9c0-1.425-.42-2.132-1.528-2.132-1.292,0-1.841.736-1.841,2.485v4.546H438.1Z" transform="translate(-315.297 -113.042)"/><path d="M462.981,135.311c.136-2.231,2.132-2.9,4.079-2.9,1.727,0,3.807.387,3.807,2.467v4.513a4.462,4.462,0,0,0,.3,1.929h-2.415a3.617,3.617,0,0,1-.169-.839,3.979,3.979,0,0,1-2.919,1.071c-1.642,0-2.945-.821-2.945-2.6,0-1.962,1.473-2.43,2.945-2.632s2.82-.169,2.82-1.141S467.778,134,466.943,134c-.906,0-1.495.368-1.579,1.307Zm5.5,1.763c-.4.368-1.241.368-1.981.5s-1.41.4-1.41,1.274.688,1.1,1.473,1.1a1.769,1.769,0,0,0,1.929-2Z" transform="translate(-330.854 -113.042)"/><path d="M488.63,124.07h2.382v11.979H488.63Z" transform="translate(-347.226 -107.772)"/><path d="M245.39,167.57h8.957v2.209h-6.325v2.577h5.8V174.4h-5.8v2.945h6.457v2.209H245.39Z" transform="translate(-193.531 -135.258)"/><path d="M278.377,178.441h-.033a2.878,2.878,0,0,1-2.632,1.34c-2.617,0-3.891-2.246-3.891-4.646,0-2.33,1.288-4.495,3.84-4.495a2.986,2.986,0,0,1,2.577,1.292h.033V167.57h2.382v11.979h-2.264Zm-2.073-6c-1.561,0-2.095,1.34-2.095,2.765,0,1.362.618,2.787,2.095,2.787,1.576,0,2.047-1.377,2.047-2.8S277.839,172.437,276.3,172.437Z" transform="translate(-210.231 -135.258)"/><path d="M307.612,185.223h-2.264v-1.207H305.3a3.1,3.1,0,0,1-2.651,1.439c-2.533,0-3.17-1.425-3.17-3.571V176.55h2.4v4.9c0,1.428.42,2.132,1.524,2.132,1.292,0,1.841-.736,1.841-2.481V176.55h2.378Z" transform="translate(-227.709 -140.932)"/><path d="M330.53,179.2a1.62,1.62,0,0,0-1.76-1.491c-1.524,0-2.028,1.542-2.028,2.816s.486,2.735,1.977,2.735a1.835,1.835,0,0,0,1.9-1.763h2.3a3.875,3.875,0,0,1-4.178,3.556,4.205,4.205,0,0,1-4.377-4.443c0-2.7,1.609-4.7,4.418-4.7,2.047,0,3.924,1.075,4.075,3.287Z" transform="translate(-243.429 -140.528)"/><path d="M349.331,178.811c.136-2.231,2.132-2.9,4.079-2.9,1.727,0,3.807.387,3.807,2.467v4.513a4.462,4.462,0,0,0,.3,1.929H355.1a3.617,3.617,0,0,1-.169-.839,3.972,3.972,0,0,1-2.919,1.071c-1.642,0-2.945-.821-2.945-2.6,0-1.962,1.473-2.43,2.945-2.632s2.82-.169,2.82-1.141-.7-1.174-1.543-1.174c-.906,0-1.495.368-1.579,1.307Zm5.522,1.763c-.4.368-1.241.368-1.981.5s-1.406.4-1.406,1.274.685,1.1,1.473,1.1a1.769,1.769,0,0,0,1.929-2Z" transform="translate(-259.043 -140.528)"/><path d="M377.195,172.089h1.741v1.594h-1.741v4.292c0,.806.2,1.009,1.005,1.009a3.562,3.562,0,0,0,.736-.07v1.863a9.2,9.2,0,0,1-1.392.085c-1.473,0-2.735-.335-2.735-2.065v-5.113H373.37v-1.594h1.439v-2.6h2.385Z" transform="translate(-274.397 -136.471)"/><path d="M393.2,169.532H390.82V167.57H393.2Zm-2.382,1.344H393.2v8.673H390.82Z" transform="translate(-285.423 -135.258)"/><path d="M404.73,175.91a4.571,4.571,0,1,1-4.48,4.58A4.259,4.259,0,0,1,404.73,175.91Zm0,7.363c1.627,0,2.113-1.392,2.113-2.768s-.486-2.783-2.113-2.783-2.1,1.392-2.1,2.783.471,2.754,2.1,2.754Z" transform="translate(-291.381 -140.528)"/><path d="M427.391,176.145h2.264v1.207h.052a3.092,3.092,0,0,1,2.651-1.443c2.533,0,3.17,1.428,3.17,3.575v5.334h-2.4v-4.9c0-1.425-.42-2.132-1.528-2.132-1.292,0-1.841.736-1.841,2.485v4.546H427.38Z" transform="translate(-308.524 -140.528)"/></g></svg>