<svg xmlns="http://www.w3.org/2000/svg" width="120.235" height="70.474" viewBox="0 0 120.235 70.474"><g transform="translate(0 0)" opacity="0.86"><path d="M141.275,103.673h-5.2v2.821h5.2v1.652h-5.2v4.2H134.26V102h7.015Z" transform="translate(-134.26 -42.051)"/><path d="M167.526,112.464a5.342,5.342,0,1,1,5.408-5.357,5.247,5.247,0,0,1-5.408,5.357Zm0-9.01a3.486,3.486,0,0,0-3.478,3.654,3.537,3.537,0,0,0,3.508,3.69,3.493,3.493,0,0,0,3.479-3.654,3.544,3.544,0,0,0-3.508-3.69Z" transform="translate(-141.795 -41.992)"/><path d="M185.462,109.812H185.4l-3.23-4.838v7.374H180.39V102H182.3l3.142,4.874L188.575,102h1.937v10.319H188.7v-7.4Z" transform="translate(-146.679 -42.051)"/><path d="M213.9,112.329H211.99l-1.045-2.492h-4.882L205,112.329H203.14l4.545-10.4h1.681ZM208.5,104.1l-1.768,4.129h3.552Z" transform="translate(-152.804 -42.032)"/><path d="M235.329,104.667a2.448,2.448,0,0,1-1.462,2.309,2.542,2.542,0,0,1,2.046,2.521c0,1.856-1.52,2.85-3.815,2.85H227.32V102h4.626C234.021,102,235.329,103.045,235.329,104.667Zm-1.812.292c0-.84-.65-1.33-1.812-1.33H229.1v2.755h2.477C232.735,106.385,233.517,105.917,233.517,104.96Zm.577,4.385c0-.884-.731-1.4-2.127-1.4H229.1v2.828h3.011c1.235,0,1.988-.519,1.988-1.462Z" transform="translate(-159.314 -42.051)"/><path d="M244.47,102v10.319h-1.82V102Z" transform="translate(-163.441 -42.051)"/><path d="M255.971,108.469h.11a3.091,3.091,0,0,0,2.463-3.142c0-2.017-1.461-3.267-3.837-3.267h-4.6v10.319h1.812v-3.6H254c.395,2.192,1.688,3.6,4.421,3.6v-1.82a2.273,2.273,0,0,1-2.448-2.09Zm-4.049-4.779h2.638c1.345,0,2.141.592,2.141,1.725s-.826,1.717-2.127,1.717h-2.653Z" transform="translate(-165.449 -42.067)"/><path d="M153.551,108.469h.11a3.091,3.091,0,0,0,2.463-3.142c0-2.017-1.462-3.267-3.829-3.267h-4.6v10.319H149.5v-3.6h2.068c.395,2.192,1.688,3.6,4.421,3.6v-1.82A2.273,2.273,0,0,1,153.551,108.469ZM149.5,103.69h2.638c1.345,0,2.141.592,2.141,1.725s-.826,1.717-2.127,1.717H149.5Z" transform="translate(-137.876 -42.067)"/><path d="M269.331,112.348H265.48V102h3.851c3.237,0,5.481,2.192,5.481,5.115A5.212,5.212,0,0,1,269.331,112.348Zm0-8.674h-2.01V110.7h2.039a3.515,3.515,0,1,0,0-7.023Z" transform="translate(-169.587 -42.051)"/><path d="M283.332,102v10.319H281.52V102Z" transform="translate(-173.906 -42.051)"/><path d="M295.871,103.644h-5.846v2.682H295.2v1.622h-5.167v2.777h5.912v1.622H288.22V102h7.651Z" transform="translate(-175.71 -42.051)"/><path d="M102.774,119.138c-.292.124-.585.241-.884.351l1.725,1.725,2.324,2.324.541.541a64.052,64.052,0,0,0,8.492-1.513l-6.738-6.825A19.731,19.731,0,0,1,102.774,119.138Z" transform="translate(-33.758 -87.166)" fill="none"/><path d="M97.177,125.866l-.124-.124-.6-.6-.6-.6-2.923-2.923c-.358.1-.731.19-1.082.278-.482.11-.965.2-1.462.278s-1,.153-1.505.2h-.256v8.769H75.21l8.725,8.725L96.293,127.51l.884-.892.417-.409Z" transform="translate(-26.575 -88.749)" fill="none"/><path d="M75.739,113.31l2.923-2.923.073-.08h-.11a14.067,14.067,0,0,1-5.4-3.281l.585-.585h0l.577-.577a12.014,12.014,0,0,0,3.566,2.4,15.238,15.238,0,0,0,2.083.731c.307.088.621.153.935.219s.65.139.979.19h.1a18.516,18.516,0,0,0,2.74.2h1.06l.628-.044h.19a22.321,22.321,0,0,0,2.412-.365l.526-.117c.285-.066.563-.139.84-.219h.08l.892-.27.365-.132c.4-.139.8-.292,1.191-.46a18.2,18.2,0,0,0,4.925-3.025l.607-.563.19-.183c.132-.132.256-.27.38-.4a17.948,17.948,0,0,0,4.933-12.562l-8.345,8.3-.2-.19-.731-.731-.227-.227.278-.278.862-.862,8.214-8.214a18.51,18.51,0,0,0-1.045-4.107l-7.629,7.607-.731.731-.731.731-2.192,2.192-.585.585-.577.577L89.148,98.6l-.972.972-1.162-1.162,1.462-1.462.767-.731.577-.585.585-.577,2.923-2.923.65-.65.665-.672,7.417-7.417a16.4,16.4,0,0,0-2.287-3.442L92.8,86.878l-.614.621-.585.577-4.056,4.056-.577.577-.161.161-.424.424-.351.351-6.16,6.16-.585-.577-.577-.585,6.8-6.8a11.378,11.378,0,0,0-7.1-3.383h-.818a4.517,4.517,0,0,0-.826.051,9.624,9.624,0,0,0-3.281.972,10.158,10.158,0,0,0-5.386,7.257.771.771,0,0,1-.058.358,2.712,2.712,0,0,0-.1.57,14.279,14.279,0,0,0-.1,2.032,6.616,6.616,0,0,0,.051,1v.278a2.077,2.077,0,0,0,.058.548A15.631,15.631,0,0,0,75.739,113.31ZM71.515,97.43a1.381,1.381,0,1,1,1.374,1.381A1.381,1.381,0,0,1,71.515,97.43Z" transform="translate(-24.59 -77.531)" fill="none"/><path d="M74.884,129.73H86.891v-7.074h-.263a19.809,19.809,0,0,1-4.182-.446h-.064l-1.3,1.308-1.688,1.688-.248.241-.628.614-.628.614-3.128,3.04Z" transform="translate(-26.454 -88.908)" fill="none"/><path d="M94.578,86.757A17,17,0,0,0,82.33,80.18v6.665A12.913,12.913,0,0,1,90.6,90.718Z" transform="translate(-28.492 -77.593)" fill="none"/><path d="M98.493,104.066a19.57,19.57,0,0,0,.19-26.827l-.585-.6-7.987,7.987a18.671,18.671,0,0,0-14.236-7.052h-.833V85.95a11.086,11.086,0,0,0-4.027,1.14,11.751,11.751,0,0,0-6.307,8.645L61.37,97.8,64.5,99.725a8.1,8.1,0,0,0,.117,1.1,17.217,17.217,0,0,0,8.177,12.8l-3.4,3.4-1.162,1.169,1.162,1.162,9.654,9.646,1.162,1.169,1.162-1.169L95.03,115.335l.066-.066a57.98,57.98,0,0,0,10.786-2.032l1.279-.4Zm-2.923,9.5-.541-.541L92.706,110.7l-1.725-1.725c.3-.11.592-.227.884-.351a19.731,19.731,0,0,0,5.459-3.4l6.738,6.825a64.052,64.052,0,0,1-8.492,1.5Zm-3,1.922L80.209,127.831l-8.725-8.725H84.93v-8.769h.256c.5-.044,1.008-.117,1.505-.2s.972-.168,1.462-.278c.365-.088.731-.175,1.082-.278l2.923,2.923.6.6.6.6.124.124.417.417-.417.409ZM66.215,100.054v-.278c0-.336-.044-.672-.051-1a14.277,14.277,0,0,1,.1-2.032,3.868,3.868,0,0,1,.1-.57c.029-.19,0-.241.058-.358a10.158,10.158,0,0,1,5.32-7.22,9.624,9.624,0,0,1,3.3-.957c.278,0,.548-.044.826-.051s.548,0,.818,0a11.378,11.378,0,0,1,7.074,3.369l-6.8,6.8.577.585.585.577,6.16-6.16.351-.351.424-.424.161-.161.577-.577,4.056-4.056.585-.577.614-.621L98.04,79a16.4,16.4,0,0,1,2.287,3.442L92.94,89.86l-.665.672-.65.65L88.7,94.106l-.585.577-.577.585L86.772,96,85.31,97.46l1.162,1.162.935-.913,1.25-1.25.577-.577.585-.585L92.011,93.1l.731-.731.731-.731,7.6-7.585a18.51,18.51,0,0,1,1.045,4.107L93.9,96.378l-.862.862-.278.278.227.227.731.731.2.19,8.345-8.345a17.948,17.948,0,0,1-4.933,12.562c-.124.132-.248.27-.38.4l-.19.183-.607.563a18.2,18.2,0,0,1-4.925,3.025c-.395.168-.789.322-1.191.46l-.365.132-.892.27H88.7c-.278.08-.555.153-.84.219l-.526.117a22.333,22.333,0,0,1-2.412.365h-.19l-.628.044H83.023a18.519,18.519,0,0,1-2.74-.2h-.1c-.329-.051-.658-.117-.979-.19s-.628-.132-.935-.219a15.237,15.237,0,0,1-2.083-.731,12.014,12.014,0,0,1-3.566-2.4l-.577.577h0l-.585.585a14.067,14.067,0,0,0,5.386,3.267h.11l-.073.08-2.923,2.923A15.631,15.631,0,0,1,66.215,100.6Q66.215,100.328,66.215,100.054Zm10.472-20.8a17,17,0,0,1,12.248,6.577l-3.99,3.99A12.913,12.913,0,0,0,76.68,85.95Zm-1.776,34.551.628-.614.248-.241,1.688-1.7,1.33-1.33h.066a19.806,19.806,0,0,0,4.18.446h.234v7.074H71.155l3.1-3.018Z" transform="translate(-22.849 -76.64)"/><path d="M75.622,103.361a1.381,1.381,0,1,0-1.381,1.381,1.381,1.381,0,0,0,1.381-1.381Z" transform="translate(-25.942 -83.462)"/></g></svg>