<svg xmlns="http://www.w3.org/2000/svg" width="94.613" height="62.211" viewBox="0 0 94.613 62.211"><g transform="translate(0 0)" opacity="0.86"><rect width="90.725" height="3.136" transform="translate(3.888 52.854)"/><rect width="90.725" height="3.136" transform="translate(3.888 59.075)"/><path d="M75.51,133.214v11.017H71.958V133.214H67.5V130H79.942v3.214Z" transform="translate(-67.5 -130)"/><path d="M132.483,138.813h-9.332v5.418H119.6V130h3.551v5.444h9.332V130h3.551v14.231h-3.551Z" transform="translate(-106.095 -130)"/><path d="M189.4,144.231V130h10.109v3.214h-6.558V135.6h5.314v3.033h-5.314v2.411h6.558v3.188Z" transform="translate(-157.802 -130)"/><path d="M86.6,203.732h-.544v9.1H82.5V198.6h4.173l8.269,8.891h.544V198.6h3.551v14.231H95.02Z" transform="translate(-78.612 -180.818)"/><path d="M152.6,212.831V198.6h10.135v3.214h-6.558v2.411h5.314v3.007h-5.314v2.411h6.558v3.188Z" transform="translate(-130.541 -180.818)"/><path d="M192.9,198.6h3.966l3.085,11.328h.829l2.8-11.328h6.688l3.24,11.328h.829l2.67-11.328h4.044l-3.94,14.231h-6.325L207.494,201.5h-.985l-2.981,11.328H197.2Z" transform="translate(-160.394 -180.818)"/><path d="M79.4,270.814c0-3.007,2.411-4.614,5.5-4.614a10.938,10.938,0,0,1,4.9,1.115l-.674,3.033a9.4,9.4,0,0,0-4.329-1.089c-1.115,0-1.84.415-1.84,1.166,0,2.307,7.284,1.011,7.284,5.806,0,2.54-1.814,4.8-5.6,4.8a11.879,11.879,0,0,1-4.925-.907l.13-3.266a11.248,11.248,0,0,0,4.9,1.115c1.555,0,1.944-.544,1.944-1.218C86.684,274.6,79.4,275.843,79.4,270.814Z" transform="translate(-76.315 -230.895)"/><path d="M134.82,280.583a9.887,9.887,0,0,1-3.707.492,7.391,7.391,0,1,1,.311-14.775,11.087,11.087,0,0,1,3.6.415l-.337,3.24a9,9,0,0,0-3.162-.467,3.818,3.818,0,0,0-4.173,4.173,3.947,3.947,0,0,0,4.277,4.173,7.877,7.877,0,0,0,3.188-.518v3.266Z" transform="translate(-109.132 -230.969)"/><path d="M185.809,276.087h-9.332V281.5H172.9V267.3h3.577v5.418h9.332V267.3h3.551v14.2h-3.551Z" transform="translate(-145.579 -231.709)"/><path d="M248.276,266.2c4.9,0,8.424,2.514,8.424,7.336,0,5-3.81,7.465-8.424,7.465-4.666,0-8.476-2.514-8.476-7.439C239.8,268.87,243.273,266.2,248.276,266.2Zm-.052,11.794c2.8,0,4.8-1.426,4.8-4.562,0-2.851-2.022-4.277-4.8-4.277s-4.8,1.4-4.8,4.381C243.455,276.569,245.477,277.994,248.224,277.994Z" transform="translate(-195.137 -230.895)"/><path d="M315.876,266.2c4.9,0,8.424,2.514,8.424,7.336,0,5-3.81,7.465-8.424,7.465-4.666,0-8.476-2.514-8.476-7.439C307.4,268.87,310.848,266.2,315.876,266.2Zm-.052,11.794c2.8,0,4.8-1.426,4.8-4.562,0-2.851-2.022-4.277-4.8-4.277s-4.8,1.4-4.8,4.381C311.055,276.569,313.051,277.994,315.824,277.994Z" transform="translate(-245.214 -230.895)"/><path d="M376.3,267.3h3.551v10.835h11.017v3.37H376.3Z" transform="translate(-296.255 -231.709)"/></g></svg>