<svg xmlns="http://www.w3.org/2000/svg" width="85.622" height="43.363" viewBox="0 0 85.622 43.363"><g transform="translate(0 0)" opacity="0.86"><path d="M38.635,209.639H35.66v-2.415h2.975v-1.9c0-3.867,2.073-5.869,6.283-5.869a15.341,15.341,0,0,1,3.314.31v2.587a11.2,11.2,0,0,0-3.279-.482c-2.5,0-3.211,2-3.211,3.66v1.691h4.895v2.415h-4.9v14.017h-3.1Z" transform="translate(-35.66 -199.455)"/><path d="M70.69,228.718c0-5.248,2.312-8.6,7.282-8.6s7.249,3.35,7.249,8.6c0,5.177-2.312,8.594-7.249,8.594S70.69,233.895,70.69,228.718Zm7.282,6.179c3.35,0,3.8-3.568,3.8-6.179s-.45-6.179-3.8-6.179c-3.418,0-3.832,3.521-3.832,6.179S74.554,234.9,77.972,234.9Z" transform="translate(-58.193 -212.747)"/><path d="M125.811,227.3a11.417,11.417,0,0,1-2.451.243c-3.971,0-4.938-1.759-4.938-4V213.16H115.49v-2.415h2.933v-3.882l3.107-1.934v5.8h4.559v2.43H121.53v8.769c0,1.484.207,3.211,2.626,3.211a6.156,6.156,0,0,0,1.655-.243Z" transform="translate(-87.01 -202.976)"/><path d="M150.23,228.718c0-5.248,2.312-8.6,7.282-8.6s7.264,3.35,7.264,8.6c0,5.177-2.312,8.594-7.249,8.594S150.23,233.895,150.23,228.718Zm7.282,6.179c3.35,0,3.8-3.568,3.8-6.179s-.46-6.179-3.8-6.179c-3.418,0-3.832,3.521-3.832,6.179S154.094,234.9,157.512,234.9Z" transform="translate(-109.356 -212.747)"/><path d="M200.45,200.48h3.107V224.3H200.45Z" transform="translate(-141.659 -200.114)"/><path d="M222.22,200.48h3.728V204H222.22Zm.31,7.389h3.107V224.3H222.53Z" transform="translate(-155.662 -200.114)"/><path d="M250.736,234.916h-.068a4.544,4.544,0,0,1-4.245,2.415c-3.075,0-4.663-1.862-4.663-4.417,0-4.352,4.8-5.387,8.976-5.387v-2.854a2.33,2.33,0,0,0-2.519-2.1,2.38,2.38,0,0,0-2.626,2.519h-3.279c0-2.622,1.555-4.938,6.147-4.938,5.384,0,5.384,4.042,5.384,5.526v11.288h-3.107Zm-.621-5.316c-2.451,0-4.9,1.1-4.9,3.211a1.935,1.935,0,0,0,1.784,2.1c2.141,0,3.728-2.451,3.728-4.385V229.6Z" transform="translate(-168.231 -212.766)"/><path d="M264.719,295.979c-.739,0-1.684.018-2.426.021H260.18a2.245,2.245,0,0,0,1.959,2.444,4.688,4.688,0,0,0,2.3-.357v.992a5.271,5.271,0,0,1-3.325.221,2.772,2.772,0,0,1-1.759-1.634,4.56,4.56,0,0,1,.057-3.607,2.911,2.911,0,0,1,3.022-1.784,2.626,2.626,0,0,1,2.5,2.4C264.954,295.241,265.011,295.979,264.719,295.979Zm-4.506-.842H263.8v-.385a1.8,1.8,0,0,0-2.073-1.509,2.141,2.141,0,0,0-1.527,1.894Z" transform="translate(-179.331 -259.148)"/><path d="M124.908,286.8a4.441,4.441,0,0,1,1.638-.275,3.09,3.09,0,0,1,3.154,2.958,3.924,3.924,0,0,1-.742,2.8,3.76,3.76,0,0,1-2.6,1.427,10.728,10.728,0,0,1-2.347-.175l-.285-.068V283.33h1.17v3.236A1.2,1.2,0,0,0,124.908,286.8Zm0,3.4v2.444l.218.043a7.319,7.319,0,0,0,.938.05,2.444,2.444,0,0,0,2.141-1.291,3.04,3.04,0,0,0,.157-2.579,1.909,1.909,0,0,0-1.534-1.277,6.424,6.424,0,0,0-1.687.111l-.218.054s-.032,1.712-.032,2.447Z" transform="translate(-92.303 -253.406)"/><path d="M240.078,286.8a4.42,4.42,0,0,1,1.634-.275,3.093,3.093,0,0,1,3.157,2.958,3.924,3.924,0,0,1-.742,2.8,3.76,3.76,0,0,1-2.6,1.427,10.7,10.7,0,0,1-2.348-.175l-.285-.068V283.33h1.181v3.236A1.86,1.86,0,0,0,240.078,286.8Zm0,3.4v2.444l.221.043a7.292,7.292,0,0,0,.935.05,2.444,2.444,0,0,0,2.141-1.291,3.04,3.04,0,0,0,.161-2.579A1.912,1.912,0,0,0,242,287.59a6.424,6.424,0,0,0-1.687.111l-.221.054s-.025,1.712-.025,2.447Z" transform="translate(-166.385 -253.406)"/><path d="M199.992,286.587V283.34h1.192v9.533c.021.357.025.357-.307.478a5.016,5.016,0,0,1-3.607.153,3,3,0,0,1-2.012-2.54,3.871,3.871,0,0,1,.392-2.59,3.446,3.446,0,0,1,2.608-1.766,11.01,11.01,0,0,1,1.573-.018Zm0,3.528v-2.5l-.218-.025a8.088,8.088,0,0,0-1.184-.036,2.344,2.344,0,0,0-1.8,1.088,2.854,2.854,0,0,0-.357,2.112,2.162,2.162,0,0,0,1.3,1.755,5.277,5.277,0,0,0,2.051.111l.225-.029s-.011-1.737-.011-2.479Z" transform="translate(-138.272 -253.413)"/><path d="M178.571,295.114h-1.245l-.978-2.729-.1-.257h-3.671l-.075.218-.974,2.786h-.913c-.232,0-.25-.029-.171-.246l1.167-3.25q.949-2.629,1.887-5.259a3.759,3.759,0,0,0,.111-.5l.018-.221h1.513l.086.225,2.808,7.745C178.207,294.1,178.379,294.586,178.571,295.114Zm-4.16-8.491c-.5,1.481-1,2.933-1.491,4.4h3C175.414,289.556,174.918,288.1,174.411,286.623Z" transform="translate(-122.331 -254.905)"/><path d="M216.683,294.1a3.211,3.211,0,0,1,6.083.767,4.356,4.356,0,0,1-.4,3.022,3.136,3.136,0,0,1-3.211,1.555,3.236,3.236,0,0,1-2.779-2.9,4.873,4.873,0,0,1,.307-2.44Zm4.773.514a1.884,1.884,0,0,0-1.784-1.377,1.784,1.784,0,0,0-1.784,1.01,4.11,4.11,0,0,0,.079,3.3,1.823,1.823,0,0,0,1.823.917,1.859,1.859,0,0,0,1.573-1.07,4.392,4.392,0,0,0,.093-2.776Z" transform="translate(-151.877 -259.125)"/><path d="M145.8,298.177c.121-.357.225-.631.328-.917.517-1.452,1.07-3,1.584-4.456.036-.1.032-.143.218-.136h1c-.082.246-.15.467-.225.685-1.092,3.075-2.39,6.193-3.678,9.215-.078.178-.325.143-.325.143l-.981.064.214-.467,1.192-2.669.089-.21s-1.784-4.4-2.611-6.489c-.032-.075-.054-.153-.089-.268h1.249c.053,0,.053.107.078.178q.928,2.5,1.837,4.995Z" transform="translate(-104.39 -259.413)"/></g></svg>