<svg xmlns="http://www.w3.org/2000/svg" width="90.998" height="36.958" viewBox="0 0 90.998 36.958"><g transform="translate(0.001 0)" opacity="0.86"><path d="M91,36.958H0V0H91ZM45.5,2.126c-12.113,0-23.259,1.714-31.385,4.826a28.363,28.363,0,0,0-9.08,5.2c-2.164,2-3.262,4.124-3.262,6.324s1.1,4.327,3.26,6.324A28.344,28.344,0,0,0,14.11,30c8.124,3.113,19.272,4.827,31.39,4.827S68.762,33.118,76.882,30a28.321,28.321,0,0,0,9.072-5.2c2.162-2,3.258-4.124,3.258-6.324s-1.1-4.327-3.26-6.324a28.34,28.34,0,0,0-9.075-5.2C68.755,3.84,57.612,2.126,45.5,2.126Z" transform="translate(-0.001 0)"/><path d="M113.427,58.51a2.429,2.429,0,0,0-.2,1.161v4.89s2.621-3.4,3.221-4.212a4.889,4.889,0,0,0,1.017-1.839h8.555a9.315,9.315,0,0,0-1.774,1.747l-3.13,3.821s3.951,6.012,4.46,6.781a7.475,7.475,0,0,0,.965,1.161H116.7a4.5,4.5,0,0,0-.8-1.813c-.417-.626-2.673-4.056-2.673-4.056V70.86a2.429,2.429,0,0,0,.2,1.161h-8.2a2.429,2.429,0,0,0,.2-1.161V59.671a2.429,2.429,0,0,0-.2-1.161Zm30.372,0H127.967a2.429,2.429,0,0,1,.2,1.161V70.86a2.429,2.429,0,0,1-.2,1.161H143.8V68.278a2.429,2.429,0,0,1-1.161.2h-6.664V66.7h6.4V63.844h-6.4V62.057h6.664a2.584,2.584,0,0,1,1.161.183Zm21.935,12.35a3.265,3.265,0,0,0,.639,1.161h-8.581a2.506,2.506,0,0,0-.261-1.161s-.13-.313-.313-.769l-.078-.2H152.2l-.078.209s-.143.378-.274.769a2.628,2.628,0,0,0-.222,1.161h-6.768a3.42,3.42,0,0,0,.613-1.161l4.056-11.189a2.472,2.472,0,0,0,.235-1.161H161.2a1.981,1.981,0,0,0,.248,1.161c.339.848,4,10.42,4.29,11.176m-9.676-3.821-1.2-3.13a6.918,6.918,0,0,1-.261-.887,5.228,5.228,0,0,1-.235.887c-.039.13-.548,1.5-1.135,3.13Zm-54.915-7.368a2.429,2.429,0,0,1,.2-1.161h-8.92a2.429,2.429,0,0,1,.2,1.161V70.86a2.429,2.429,0,0,1-.2,1.161h8.92a2.429,2.429,0,0,1-.2-1.161Zm61.853-.091a1.781,1.781,0,1,0,3.56.091V59.58a1.737,1.737,0,0,0-1.708-1.774h-.065a1.7,1.7,0,0,0-1.774,1.656.127.127,0,0,0-.013.117m3.195,0a1.422,1.422,0,1,1-2.843.078v-.091a1.37,1.37,0,0,1,1.317-1.421h.1a1.4,1.4,0,0,1,1.421,1.369v.065m-.548,1.069h-.352l-.417-.756h-.456v.756H164.1V58.51h.8a.682.682,0,0,1,.665.691.715.715,0,0,1-.378.626Zm-.8-1.069a.36.36,0,0,0,.391-.352.369.369,0,0,0-.352-.391h-.469v.756h.43" transform="translate(-82.665 -47.138)"/></g></svg>