<svg xmlns="http://www.w3.org/2000/svg" width="132.268" height="63.214" viewBox="0 0 132.268 63.214"><g opacity="0.86"><path d="M155.02,78.927H188.5v33.479H155.02ZM159.7,83.54v24.186h24.12V83.54Z" transform="translate(-105.923 -78.927)" fill-rule="evenodd"/><path d="M2.834,113.046V99.471h5.8a4.97,4.97,0,0,1,4.283,2.174,7.943,7.943,0,0,1,1.319,4.615,7.592,7.592,0,0,1-1.45,4.678,5,5,0,0,1-4.151,2.109h-5.8Zm2.834-11.137v8.7H8.3a2.528,2.528,0,0,0,2.307-1.319,5.9,5.9,0,0,0,.66-3.031,5.62,5.62,0,0,0-.66-2.834A2.444,2.444,0,0,0,8.3,101.908H5.668Zm16.739,7.975h2.636a3.865,3.865,0,0,1-1.713,2.571,5.238,5.238,0,0,1-2.965.79A4.266,4.266,0,0,1,17,111.729a5.342,5.342,0,0,1-1.384-3.823,5,5,0,0,1,1.318-3.492,4.672,4.672,0,0,1,3.427-1.45,4.121,4.121,0,0,1,4.02,2.109,6.043,6.043,0,0,1,.593,1.647,10.277,10.277,0,0,1,.2,2.044H18.321a2.45,2.45,0,0,0,.528,1.448,1.936,1.936,0,0,0,1.516.792,3.546,3.546,0,0,0,1.252-.264,1.439,1.439,0,0,0,.79-.857Zm-4.086-2.834h4.086a1.622,1.622,0,0,0-.593-1.252,2.164,2.164,0,0,0-1.449-.594,1.9,1.9,0,0,0-1.384.594,1.506,1.506,0,0,0-.66,1.252Zm8.5-3.888h2.636v6.524a1.386,1.386,0,0,0,.461.924,1.8,1.8,0,0,0,1.12.4,2.077,2.077,0,0,0,1.383-.46,1.73,1.73,0,0,0,.594-1.254v-6.128h2.571v9.885H33.018v-1.252a3.623,3.623,0,0,1-2.965,1.45,3.859,3.859,0,0,1-2.175-.66,2.291,2.291,0,0,1-1.054-1.911v-7.512Zm13.971-2.834v2.834h1.516v1.846H40.794v5.073a.816.816,0,0,0,.264.529.807.807,0,0,0,.593.2h.4a.5.5,0,0,1,.264-.065v2.306a5.384,5.384,0,0,1-.858.133,4.73,4.73,0,0,1-1.054.065,2.044,2.044,0,0,1-1.582-.66,1.938,1.938,0,0,1-.593-1.45v-6.128H36.906V103.16h1.319v-1.319l2.57-1.515Zm2.637,9.358h2.636a1.24,1.24,0,0,0,.527,1.12,2.093,2.093,0,0,0,1.319.4,2.634,2.634,0,0,0,1.12-.2.884.884,0,0,0,.528-.858c0-.527-.461-.922-1.516-1.186a17.094,17.094,0,0,1-2.833-.857,2.192,2.192,0,0,1-1.582-2.042,2.78,2.78,0,0,1,1.12-2.243,4.477,4.477,0,0,1,2.9-.857,5.017,5.017,0,0,1,2.9.79,2.846,2.846,0,0,1,1.318,2.5H49.428a1.278,1.278,0,0,0-.594-.922,2.27,2.27,0,0,0-1.187-.33,2.207,2.207,0,0,0-.989.262.829.829,0,0,0-.4.725c0,.4.528.725,1.516.924a12.5,12.5,0,0,1,2.833.658,2.415,2.415,0,0,1,1.582,2.374,2.7,2.7,0,0,1-1.383,2.5,5.019,5.019,0,0,1-2.9.79,5.1,5.1,0,0,1-3.23-.989A2.9,2.9,0,0,1,43.431,109.685Zm14.893,3.56a4.5,4.5,0,0,1-3.426-1.516,5.607,5.607,0,0,1-1.318-3.823,4.991,4.991,0,0,1,1.383-3.492,4.634,4.634,0,0,1,3.361-1.45,4.7,4.7,0,0,1,3.1,1.12,3.141,3.141,0,0,1,1.384,2.636H60.169a1.284,1.284,0,0,0-.528-1.055,1.9,1.9,0,0,0-1.318-.46,1.764,1.764,0,0,0-1.516.79,3.28,3.28,0,0,0-.528,1.911,4.493,4.493,0,0,0,.528,2.241,1.825,1.825,0,0,0,1.516.858,1.8,1.8,0,0,0,1.252-.529,1.376,1.376,0,0,0,.594-1.12h2.637a3.5,3.5,0,0,1-1.384,2.834,5.159,5.159,0,0,1-3.1,1.055Zm6.2-13.773h2.637v4.743a2.8,2.8,0,0,1,1.318-.987,7.084,7.084,0,0,1,1.713-.264,3.629,3.629,0,0,1,2.307.79,2.346,2.346,0,0,1,.988,1.977v7.316h-2.57v-6.2a1.638,1.638,0,0,0-.461-1.186,1.555,1.555,0,0,0-1.119-.4,2.582,2.582,0,0,0-1.516.46,1.6,1.6,0,0,0-.659,1.254v6.062H64.52V99.471Zm17.464,10.412h2.571a3.863,3.863,0,0,1-1.714,2.571,5.163,5.163,0,0,1-2.9.79,4.5,4.5,0,0,1-3.427-1.516,5.307,5.307,0,0,1-1.318-3.823,4.721,4.721,0,0,1,1.318-3.492,4.566,4.566,0,0,1,3.427-1.45,4.083,4.083,0,0,1,3.955,2.109,4.561,4.561,0,0,1,.659,1.647,10.355,10.355,0,0,1,.131,2.044H77.832a2.161,2.161,0,0,0,.593,1.448,1.845,1.845,0,0,0,1.516.792,3.9,3.9,0,0,0,1.253-.264,2,2,0,0,0,.79-.857Zm-4.152-2.834h4.151a1.7,1.7,0,0,0-.659-1.252,1.9,1.9,0,0,0-1.384-.594,2.049,2.049,0,0,0-1.45.594,1.7,1.7,0,0,0-.658,1.252Zm13.378,6V99.471h6.92a3.245,3.245,0,0,1,2.5,1.053,3.652,3.652,0,0,1,.725,4.285,3.242,3.242,0,0,1-1.319,1.186,4.4,4.4,0,0,1,1.649,1.254,3.226,3.226,0,0,1,.592,1.846,3.776,3.776,0,0,1-1.12,2.767,3.281,3.281,0,0,1-2.571,1.186h-7.38Zm2.768-11.137v2.9h3.361a1.838,1.838,0,0,0,1.186-.4,1.188,1.188,0,0,0,.46-.989,1.448,1.448,0,0,0-.46-1.12,1.674,1.674,0,0,0-1.12-.4Zm0,5.339v3.361h3.558a1.694,1.694,0,0,0,1.319-.529,1.594,1.594,0,0,0,0-2.371,1.9,1.9,0,0,0-1.319-.46H93.978Zm12.917-1.122h-2.638a2.814,2.814,0,0,1,1.319-2.437,5.49,5.49,0,0,1,2.834-.725,6.362,6.362,0,0,1,3.361.725,2.068,2.068,0,0,1,.922,1.714v6.062a2.358,2.358,0,0,0,.594,1.581h-2.7a2.324,2.324,0,0,1-.328-.527,2.969,2.969,0,0,1-.2-.594,2.818,2.818,0,0,1-1.319.989,4.486,4.486,0,0,1-1.778.33,3.044,3.044,0,0,1-3.1-2.966,3.085,3.085,0,0,1,.727-2.044,3.147,3.147,0,0,1,1.977-.987c1.516-.264,2.241-.4,2.306-.4.79-.2,1.186-.46,1.186-.725a.837.837,0,0,0-.46-.857,1.991,1.991,0,0,0-1.186-.262,2.834,2.834,0,0,0-1.12.262.984.984,0,0,0-.4.858Zm3.162,3.56v-1.516a20.134,20.134,0,0,0-2.042.46c-.989.264-1.45.725-1.45,1.319,0,.46.065.725.33.922a1.662,1.662,0,0,0,1.055.264,2.373,2.373,0,0,0,1.317-.4A1.63,1.63,0,0,0,110.058,109.685ZM115,103.161h2.636v1.118a3.808,3.808,0,0,1,1.252-.987,5.2,5.2,0,0,1,1.581-.33,4.3,4.3,0,0,1,2.306.66,2.5,2.5,0,0,1,1.055,1.977v7.447h-2.636v-6.523a1.106,1.106,0,0,0-.4-.924,1.563,1.563,0,0,0-1.055-.33,2.367,2.367,0,0,0-1.252.264,3.2,3.2,0,0,0-.857.989v6.524H115v-9.885h0Zm10.94-3.69h2.636v7.249l3.031-3.558h3.164l-3.23,3.756,3.56,6.128H132l-2.241-4.217-1.186,1.252v2.966h-2.636V99.471h0Z" transform="translate(-2.834 -50.03)" fill-rule="evenodd"/><path d="M162.852,104.548l12.059-17.8,6.525-.131-12.457,17.926Z" transform="translate(-106.242 -79.241)" fill-rule="evenodd"/></g></svg>