<svg xmlns="http://www.w3.org/2000/svg" width="90.998" height="47.711" viewBox="0 0 90.998 47.711"><g transform="translate(0)" opacity="0.86"><path d="M25.25,242.747V208h91v34.747Zm15.783-6.014v-8.393a2.406,2.406,0,0,1,2.673-2.563,2.32,2.32,0,0,1,2.536,2.6v8.376h8.463v-8.379a2.352,2.352,0,0,1,2.589-2.576,2.4,2.4,0,0,1,2.649,2.583v8.356H68.3v-.625c0-2.482.033-4.968,0-7.451a22.079,22.079,0,0,0-.334-3.418,6.141,6.141,0,0,0-3.491-4.634,9.853,9.853,0,0,0-5.56-.832,6.929,6.929,0,0,0-4.4,2.178c-.384.411-.7.882-1.059,1.336a6.328,6.328,0,0,0-6.291-3.535,7.621,7.621,0,0,0-6.482,3.555v-2.673H32.717V236.76Zm70.126-16.1h-8.353q-2,6.826-4.009,13.658h-.127l-4.086-13.655H86.232l5.312,16.1h14.293C107.611,231.388,109.379,226.042,111.16,220.629ZM69.7,220.606v5.55h2.76v10.6h8.276V226.135h4.587v-5.526H80.769v-6.375l-8.329,3.194v3.177Z" transform="translate(-25.25 -208)"/><path d="M137.66,327.406v-8.46h1.56v7.127h10.651v-4.24h1.637v4.21h8.473V321.83h1.671v4.206h8.426v-7.09h1.711v7.127h8.4V318.92h1.577v8.486Z" transform="translate(-100.103 -281.861)"/><path d="M72.5,327.6v5.566H41.6a5.523,5.523,0,0,1,5.563-5.5v4.173h11.36V327.6h1.62v4.233H70.878V327.6Zm-29.138,4.223h2.045v-2.4A4.579,4.579,0,0,0,43.364,331.823Z" transform="translate(-36.137 -287.641)"/><path d="M279.73,318.92h1.534v8.473H279.73Z" transform="translate(-194.706 -281.861)"/><path d="M94.13,346.71v1.357H92.69V346.71Z" transform="translate(-70.158 -300.366)"/><path d="M47.58,321.237H46.163L46.1,319.86l1.48-.07Z" transform="translate(-39.134 -282.44)"/><path d="M204.54,346.66h1.38v1.367h-1.38Z" transform="translate(-144.638 -300.332)"/><path d="M129.41,321.426V320.09h1.4v1.336Z" transform="translate(-94.609 -282.64)"/><path d="M52.68,320h1.336v1.363H52.68Z" transform="translate(-43.515 -282.58)"/><path d="M174.48,320h1.356v1.336H174.48Z" transform="translate(-124.621 -282.58)"/><path d="M87.8,348.09H86.463l-.063-1.36h1.4Z" transform="translate(-65.969 -300.379)"/></g></svg>