<svg xmlns="http://www.w3.org/2000/svg" width="16" height="16" viewBox="0 0 16 16"><g transform="translate(0 0.213)"><path d="M8.008,20.29h-3.2V9.38h3.2ZM6.4,7.822A1.554,1.554,0,1,1,7.99,6.263a1.53,1.53,0,0,1-.465,1.1A1.613,1.613,0,0,1,6.4,7.817ZM20.8,20.29H17.6V14.056c0-1.328-.469-2.37-2.339-2.37-1.9,0-2.453.877-2.453,2.37V20.29h-3.2V9.38h3.2L12.93,10.4h.051c.486-.9,1.877-1.422,3.536-1.3,2.658.192,4.294,1.886,4.284,4.905V20.29Z" transform="translate(-4.801 -4.715)" fill-rule="evenodd"/></g><rect width="16" height="16" transform="translate(0)" fill="none"/></svg>