<svg xmlns="http://www.w3.org/2000/svg" width="16" height="16" viewBox="0 0 16 16"><path d="M1424.709-634a4.708,4.708,0,0,1-3.355-1.258,4.64,4.64,0,0,1-1.355-3.451v-6.613a4.419,4.419,0,0,1,4.677-4.677h6.646a4.593,4.593,0,0,1,3.387,1.323,4.624,4.624,0,0,1,1.29,3.355v6.645a4.617,4.617,0,0,1-1.323,3.419,4.764,4.764,0,0,1-3.387,1.258Zm-2.355-13.677a3.214,3.214,0,0,0-.871,2.355v6.613a3.24,3.24,0,0,0,.871,2.387,3.334,3.334,0,0,0,2.355.839h6.581a3.336,3.336,0,0,0,2.355-.839,3.154,3.154,0,0,0,.935-2.355v-6.645a3.328,3.328,0,0,0-.871-2.323,3.216,3.216,0,0,0-2.355-.871h-6.645A3.281,3.281,0,0,0,1422.355-647.677Zm1.516,5.645a4.137,4.137,0,0,1,4.129-4.129,4.158,4.158,0,0,1,4.129,4.129A4.137,4.137,0,0,1,1428-637.9,4.116,4.116,0,0,1,1423.871-642.032Zm1.484,0a2.657,2.657,0,0,0,2.645,2.645,2.657,2.657,0,0,0,2.645-2.645,2.657,2.657,0,0,0-2.645-2.646A2.658,2.658,0,0,0,1425.354-642.032Zm6-4.226a.935.935,0,0,1,.936-.936.935.935,0,0,1,.935.936.935.935,0,0,1-.935.935A.935.935,0,0,1,1431.355-646.258Z" transform="translate(-1420 650)"/><rect width="16" height="16" fill="none"/></svg>