<svg xmlns="http://www.w3.org/2000/svg" width="1920.004" height="167.578" viewBox="0 0 1920.004 167.578"><path d="M22668-15457.422H20748l0-167.578.006,83.252c43.035,0,72.943-8.348,107.57-18.014,12.26-3.424,24.932-6.963,39.184-10.421,16.109-3.91,31.672-7.069,47.574-9.657,40.826-6.643,86.357-9.872,139.193-9.872,32.471,0,64.713-1.2,98.566-3.666,29.889-2.179,57.242-5.041,83.7-7.81h.018c45.461-4.758,88.4-9.251,135.609-9.251,56.871,0,113.391,6.586,177.873,20.728,14.01,3.071,27.588,5.754,40.355,7.973,12.363,2.148,24.408,3.938,35.8,5.32a500.336,500.336,0,0,0,60.7,3.895,423.492,423.492,0,0,0,63.227-4.758c19.688-2.9,38.586-6.843,58.592-11.016,45.959-9.585,98.051-20.448,178.7-22.514,13.777-.353,27.242-.531,40.018-.531,87.287,0,138.031,8.194,187.105,16.119l.012,0c23.781,3.84,46.244,7.468,72.633,10.235,14.186,1.488,28.129,2.58,42.623,3.338,16.23.849,32.768,1.261,50.561,1.261,37.252,0,74.123-1.6,109.592-4.754,28.369-2.523,55.906-6.042,81.85-10.458,23.08-3.929,40.6-7.855,51.225-10.458,11.449-2.8,17.66-4.736,17.715-4.754l0,153.39,0,0h0v0Z" transform="translate(-20747.998 15625)" fill="#fff"/></svg>